<svg width="45" height="15" xmlns="http://www.w3.org/2000/svg">
 <g>
  <title>Layer 1</title>
  <path id="svg_3" fill="#010002" d="m7.53125,0.0625c-4.09022,0 -7.40625,3.31603 -7.40625,7.40625c0,4.09121 3.31603,7.40625 7.40625,7.40625c4.09121,0 7.40625,-3.31504 7.40625,-7.40625c0,-4.09022 -3.31504,-7.40625 -7.40625,-7.40625zm3.43156,4.67285l-2.75216,2.75315l2.43616,2.71365c0.19256,0.19256 0.19256,0.50659 0,0.69816c-0.19157,0.19256 -0.5056,0.19256 -0.69717,0l-2.43616,-2.71365l-2.71464,2.71365c-0.19256,0.19256 -0.5056,0.19256 -0.69816,0c-0.19256,-0.19158 -0.19256,-0.5056 0,-0.69816l2.75216,-2.75216l-2.43517,-2.71464c-0.19256,-0.19256 -0.19256,-0.5056 0,-0.69816s0.5056,-0.19256 0.69816,0l2.43616,2.71464l2.71365,-2.71464c0.19256,-0.19256 0.5056,-0.19256 0.69816,0s0.19158,0.5056 -0.00099,0.69816z"/>
  <g id="svg_4"/>
  <g id="svg_5"/>
  <g id="svg_6"/>
  <g id="svg_7"/>
  <g id="svg_8"/>
  <g id="svg_9"/>
  <g id="svg_10"/>
  <g id="svg_11"/>
  <g id="svg_12"/>
  <g id="svg_13"/>
  <g id="svg_14"/>
  <g id="svg_15"/>
  <g id="svg_16"/>
  <g id="svg_17"/>
  <g id="svg_18"/>
  <path id="svg_19" fill="#949494" d="m22.5,0.10417c-4.07297,0 -7.375,3.30203 -7.375,7.375c0,4.07395 3.30203,7.375 7.375,7.375c4.07395,0 7.375,-3.30105 7.375,-7.375c0,-4.07297 -3.30105,-7.375 -7.375,-7.375zm3.41708,4.65313l-2.74055,2.74153l2.42588,2.7022c0.19175,0.19175 0.19175,0.50445 0,0.69522c-0.19077,0.19175 -0.50347,0.19175 -0.69423,0l-2.42588,-2.7022l-2.70318,2.7022c-0.19175,0.19175 -0.50347,0.19175 -0.69522,0c-0.19175,-0.19077 -0.19175,-0.50347 0,-0.69522l2.74055,-2.74055l-2.4249,-2.70318c-0.19175,-0.19175 -0.19175,-0.50347 0,-0.69522s0.50347,-0.19175 0.69522,0l2.42588,2.70318l2.7022,-2.70318c0.19175,-0.19175 0.50347,-0.19175 0.69522,0s0.19077,0.50347 -0.00098,0.69522z"/>
  <path id="svg_1" fill="#f44336" d="m37.40625,0.13636c-4.07297,0 -7.375,3.30203 -7.375,7.375c0,4.07395 3.30203,7.375 7.375,7.375c4.07395,0 7.375,-3.30105 7.375,-7.375c0,-4.07297 -3.30105,-7.375 -7.375,-7.375zm3.41708,4.65313l-2.74055,2.74153l2.42589,2.7022c0.19175,0.19175 0.19175,0.50445 0,0.69522c-0.19077,0.19175 -0.50347,0.19175 -0.69424,0l-2.42588,-2.7022l-2.70319,2.7022c-0.19175,0.19175 -0.50347,0.19175 -0.69522,0c-0.19175,-0.19077 -0.19175,-0.50347 0,-0.69522l2.74055,-2.74055l-2.4249,-2.70318c-0.19175,-0.19175 -0.19175,-0.50347 0,-0.69522s0.50347,-0.19175 0.69522,0l2.42588,2.70318l2.7022,-2.70318c0.19175,-0.19175 0.50347,-0.19175 0.69522,0s0.19077,0.50347 -0.00098,0.69522z"/>
  <g id="svg_2"/>
  <g id="svg_20"/>
  <g id="svg_21"/>
  <g id="svg_22"/>
  <g id="svg_23"/>
  <g id="svg_24"/>
  <g id="svg_25"/>
  <g id="svg_26"/>
  <g id="svg_27"/>
  <g id="svg_28"/>
  <g id="svg_29"/>
  <g id="svg_30"/>
  <g id="svg_31"/>
  <g id="svg_32"/>
  <g id="svg_33"/>
 </g>
</svg>