<?xml version="1.0" encoding="iso-8859-1"?>
<!-- Generator: Adobe Illustrator 18.1.1, SVG Export Plug-In . SVG Version: 6.00 Build 0)  -->
<svg width="14" height="14" xmlns="http://www.w3.org/2000/svg">
 <g>
  <title>Layer 1</title>
  <path fill="#f44336" id="svg_21" d="m0.80426,13.2367c0.18083,0.1809 0.40687,0.2713 0.6329,0.2713s0.46713,-0.0904 0.6329,-0.2713l4.91255,-4.91251l4.91259,4.91251c0.1808,0.1809 0.4068,0.2713 0.6329,0.2713s0.4671,-0.0904 0.6329,-0.2713c0.3466,-0.3466 0.3466,-0.9192 0,-1.2808l-4.89753,-4.89746l4.89743,-4.91255c0.3466,-0.34661 0.3466,-0.9192 0,-1.28086c-0.3466,-0.36166 -0.9192,-0.34661 -1.2808,0l-4.89749,4.91255l-4.91255,-4.8975c-0.34661,-0.34661 -0.9192,-0.34661 -1.28086,0c-0.34661,0.34661 -0.34661,0.9192 0,1.28086l4.91255,4.89745l-4.89745,4.91251c-0.36171,0.3466 -0.36171,0.9193 -0.00005,1.2658l0.00001,0z"/>
 </g>
</svg>