<?xml version="1.0" encoding="utf-8"?>
<!-- Generator: Adobe Illustrator 18.1.1, SVG Export Plug-In . SVG Version: 6.00 Build 0)  -->
<svg version="1.1" id="Слой_1" xmlns="http://www.w3.org/2000/svg" xmlns:xlink="http://www.w3.org/1999/xlink" x="0px" y="0px"
	 viewBox="0 0 76.1 14.3" enable-background="new 0 0 76.1 14.3" xml:space="preserve">
<g id="vaFCGL.tif">
	<g>
		<path fill="#252525" d="M75.9,7.6c-0.1,0.5-0.1,1-0.3,1.4c-0.7,2.3-2.1,3.8-4.3,4.6c-2.2,0.8-4.4,0.6-6.4-0.6
			c-1.8-1.1-2.8-2.7-3.2-4.7c-0.3-1.7,0-3.3,0.9-4.7c1-1.7,2.6-2.8,4.5-3.2c0.4-0.1,0.8-0.1,1.3-0.2c0.1,0,0.2,0,0.3,0
			c0.1,0,0.1,0,0.2,0c0.5,0.1,0.9,0.1,1.4,0.2C73,1,74.9,2.6,75.7,5.5c0.1,0.4,0.1,0.8,0.2,1.2C75.9,7,75.9,7.3,75.9,7.6z M64.5,7.1
			c0,0.2,0,0.4,0.1,0.7c0,0.2,0.1,0.5,0.2,0.7c0.9,2.8,4.1,3.4,6.2,2.3c2.3-1.3,2.5-4.4,1.3-6.3c-1.3-1.9-3.9-2.2-5.6-1.2
			C65.2,4.2,64.6,5.5,64.5,7.1z"/>
		<path fill="#252525" d="M7.4,0.1c0.5,0.1,1,0.1,1.5,0.2c1.8,0.4,3.3,1.4,4.3,3c0.1,0.2,0.1,0.4-0.1,0.5c-0.5,0.4-0.9,0.7-1.4,1.1
			c-0.3,0.2-0.4,0.2-0.6-0.1c-0.4-0.5-0.9-1-1.5-1.4C8,2.5,5.2,2.7,3.9,4.6C2.7,6.4,3,9.5,5.2,10.8c0.9,0.5,1.9,0.6,3,0.5
			c1.3-0.2,2.2-0.8,3-1.9c0.3-0.4,0.3-0.4,0.7-0.1c0.4,0.4,0.9,0.7,1.3,1.1c0.2,0.2,0.3,0.3,0.1,0.6c-0.8,1.2-1.8,2.1-3.2,2.6
			c-2.7,0.9-5.2,0.7-7.4-1.2C0.7,10.7,0.1,8.5,0.4,6C0.7,4,1.7,2.5,3.3,1.4c1.1-0.7,2.3-1.1,3.6-1.2c0.1,0,0.3,0,0.4,0
			C7.3,0.1,7.4,0.1,7.4,0.1z"/>
		<path fill="#252525" d="M25.1,9.5c0.6,1.1,1.1,2.2,1.7,3.3c0.1,0.3,0.3,0.5,0.4,0.8c0.1,0.3,0,0.4-0.2,0.4c-0.8,0-1.6,0-2.4,0
			c-0.3,0-0.4-0.2-0.5-0.4c-0.5-1-1-1.9-1.4-2.9c-0.1-0.2-0.2-0.3-0.5-0.3c-1.1,0-2.2,0-3.2,0c-0.1,0-0.2,0-0.3,0c0,0.1,0,0.2,0,0.3
			c0,0.9,0,1.9,0,2.8c0,0.4-0.1,0.5-0.5,0.5c-0.6,0-1.2,0-1.8,0c-0.5,0-0.6-0.1-0.6-0.6c0-1.3,0-2.6,0-3.8c0-2.9,0-5.7,0-8.6
			c0-0.5,0.1-0.6,0.6-0.6c1.9,0,3.9,0,5.8,0c1.6,0,3,0.5,4.1,1.7c2,2.1,1.6,5.6-0.8,7.2C25.4,9.3,25.2,9.4,25.1,9.5z M18.6,7.5
			c0.1,0,0.1,0,0.2,0c1.1,0,2.2,0,3.3,0c0.3,0,0.7-0.1,1-0.2c0.8-0.3,1.3-0.8,1.4-1.6c0.2-0.8,0-1.6-0.7-2.2
			c-0.5-0.4-1.1-0.5-1.7-0.5c-1.1,0-2.2,0-3.3,0c-0.1,0-0.1,0-0.2,0C18.6,4.6,18.6,6.1,18.6,7.5z"/>
		<path fill="#252525" d="M47,7.1c0-2.1,0-4.2,0-6.2c0-0.5,0.1-0.6,0.6-0.6c1.7,0,3.3,0,5,0c1.6,0,3,0.4,4.3,1.3
			c1.6,1.1,2.5,2.6,2.7,4.5c0.2,1.6-0.1,3.2-0.9,4.6c-1,1.6-2.4,2.5-4.2,2.9c-0.7,0.1-1.3,0.2-2,0.2c-1.6,0-3.3,0-4.9,0
			c-0.4,0-0.5-0.1-0.5-0.5C47,11.3,47,9.2,47,7.1z M49.9,11.1c1.2,0,2.3,0,3.4,0c0.9,0,1.7-0.4,2.3-1.1c0.7-0.7,1-1.5,1.1-2.5
			c0.2-2.3-1.1-4.2-3.6-4.4c-1.1-0.1-2.1,0-3.2,0c0,0,0,0,0,0C49.9,5.8,49.9,8.5,49.9,11.1z"/>
		<path fill="#252525" d="M40.5,11.2c-0.6,0-1.2,0-1.8,0c-1.6,0-3.2,0-4.8,0c-0.2,0-0.3,0-0.3,0.2c-0.3,0.7-0.5,1.4-0.8,2
			c-0.2,0.4-0.3,0.5-0.7,0.5c-0.7,0-1.5,0-2.2,0c-0.4,0-0.4-0.1-0.3-0.5c1.9-4.3,3.8-8.5,5.8-12.8c0.1-0.2,0.3-0.3,0.5-0.3
			c0.8,0,1.7,0,2.6,0c0.3,0,0.4,0.1,0.6,0.4c1.4,3.3,2.9,6.6,4.3,10c0.4,0.9,0.8,1.8,1.2,2.7c0.2,0.4,0.1,0.6-0.4,0.6
			c-0.7,0-1.4,0-2.1,0c-0.3,0-0.5-0.1-0.7-0.4C41.1,12.7,40.8,12,40.5,11.2z M39.5,8.6c0-0.1-0.1-0.2-0.1-0.3c-0.7-1.7-1.3-3.4-2-5
			c0-0.1-0.1-0.3-0.2-0.2c-0.1,0-0.2,0.1-0.2,0.2c-0.6,1.4-1.2,2.8-1.7,4.3c-0.1,0.3-0.3,0.7-0.4,1C36.4,8.6,37.9,8.6,39.5,8.6z"/>
	</g>
</g>
</svg>
