<?xml version="1.0" encoding="utf-8"?>
<!-- Generator: Adobe Illustrator 18.1.1, SVG Export Plug-In . SVG Version: 6.00 Build 0)  -->
<svg version="1.1" id="Слой_1" xmlns:sketch="http://www.bohemiancoding.com/sketch/ns"
	 xmlns="http://www.w3.org/2000/svg" xmlns:xlink="http://www.w3.org/1999/xlink" x="0px" y="0px" viewBox="0 0 50 50"
	 xml:space="preserve">
    <title>magnifying-glass32</title>
    <path stroke="null" fill="#000000" d="m1.70774,42.9589l10.35987,-10.35986c0.06204,-0.06203 0.12407,-0.09305 0.1861,-0.15509c-2.04716,-3.10176 -3.22582,-6.79284 -3.22582,-10.76309c0,-10.76309 8.74695,-19.54107 19.57208,-19.54107s19.57209,8.77797 19.57209,19.57208c0,10.82513 -8.77797,19.57208 -19.57209,19.57208c-3.97024,0 -7.66134,-1.17867 -10.76309,-3.22582c-0.06203,0.06203 -0.09305,0.12407 -0.15509,0.1861l-10.32885,10.35987c-1.55088,1.55088 -4.0633,1.55088 -5.61418,0c-1.5819,-1.55088 -1.5819,-4.09432 -0.03102,-5.6452l0,0zm26.89222,-8.43678c7.07201,0 12.77923,-5.73825 12.77923,-12.77924c0,-7.072 -5.73825,-12.77924 -12.77923,-12.77924c-7.072,0 -12.77924,5.73825 -12.77924,12.77924s5.70723,12.77924 12.77924,12.77924l0,0z"/>
</svg>
